<svg version="1.1" id="Layer_1" xmlns="http://www.w3.org/2000/svg" xmlns:xlink="http://www.w3.org/1999/xlink" x="0px" y="0px"
	 width="100%" viewBox="0 0 496 208" enable-background="new 0 0 496 208" xml:space="preserve">
<path fill="#000000" opacity="1.000000" stroke="none" 
	d="
M264.925049,166.314102 
	C255.143234,168.308731 246.332794,166.580658 237.818237,162.554459 
	C227.469330,157.660873 222.327606,146.652237 232.761200,137.464798 
	C233.556900,136.764130 234.475494,135.896317 234.030365,133.898804 
	C231.298004,138.739578 227.638611,139.933624 222.689316,138.448898 
	C217.456955,136.879227 212.131134,139.190964 206.717468,138.743454 
	C203.535019,138.480392 201.704132,138.166809 201.243286,135.080444 
	C197.517975,135.000244 196.343521,140.525681 191.749451,138.168594 
	C188.494415,136.498535 185.421173,135.595886 188.020813,130.163681 
	C182.109085,133.005417 179.618378,137.727600 175.565689,140.727844 
	C169.705597,145.066116 167.079361,145.157623 162.070877,140.110916 
	C159.444946,137.464966 155.149384,137.346130 151.407501,138.352280 
	C149.074615,138.979568 146.666229,140.140778 145.209915,137.507919 
	C143.873398,135.091644 145.718948,133.069931 147.282181,131.340057 
	C148.161194,130.367340 149.261993,129.526749 150.404816,128.875870 
	C152.376999,127.752678 154.351883,125.967720 156.833176,127.387138 
	C159.211288,128.747559 157.529556,131.016418 157.756012,132.865097 
	C157.833038,133.493988 157.873184,134.127396 157.933914,134.800125 
	C160.560501,135.133087 160.392059,132.875931 161.239746,131.681732 
	C162.094467,130.477585 162.715881,129.000107 164.622818,129.314804 
	C166.302673,131.032196 164.497009,132.807678 164.821152,134.851700 
	C166.710083,135.017242 167.896622,134.070038 168.403564,132.354172 
	C168.862610,130.800537 168.438873,129.199860 167.010834,128.393555 
	C162.663437,125.938858 165.117996,124.158119 167.837570,121.550926 
	C168.414352,126.999298 174.310211,124.350601 176.097458,127.383408 
	C175.537247,129.891418 172.841644,128.102295 172.537979,130.150116 
	C174.892105,133.236069 177.498627,132.794388 179.539551,128.648056 
	C182.406754,122.823074 185.006851,116.867020 187.759109,110.984764 
	C188.501846,109.397339 189.069717,107.487518 192.255875,107.867439 
	C191.461014,114.368629 187.399063,119.490860 185.543442,125.951355 
	C191.680054,124.771202 191.914658,128.625778 191.461014,132.977249 
	C195.302673,133.510452 195.769196,127.450630 200.498093,129.323975 
	C203.375107,130.463715 208.129242,127.656944 206.747330,134.931717 
	C210.143860,132.405487 211.953110,129.478470 214.978867,128.049744 
	C219.642776,125.847496 221.088562,126.691292 221.332825,131.890427 
	C221.369553,132.672241 221.626450,133.443695 221.798111,134.303070 
	C226.219208,134.105545 223.221375,128.955231 226.259140,128.130859 
	C229.200470,128.504700 227.531082,131.627457 229.292313,132.963028 
	C233.634109,129.513367 235.508850,122.758377 242.747925,122.763412 
	C243.922699,126.021553 241.868805,127.092255 239.121445,127.921600 
	C239.678604,129.232330 240.226715,130.521729 240.918365,132.148819 
	C254.551270,126.613045 268.626160,123.498291 283.098297,122.189865 
	C292.210205,121.366058 301.313080,120.132057 310.489044,120.623116 
	C314.746887,120.850960 317.682129,119.357620 320.100800,115.764450 
	C331.724762,98.495781 343.474670,81.313896 353.759491,63.189125 
	C354.792786,61.368103 355.659546,59.153900 359.342804,60.565376 
	C351.008911,79.863091 341.525940,98.434868 333.614868,118.233749 
	C350.721008,121.294525 367.610992,119.715256 384.488739,121.295654 
	C383.637177,123.992188 382.382141,123.604782 381.255341,123.585754 
	C369.931915,123.394562 358.608917,123.141037 347.284637,123.047241 
	C337.549591,122.966599 336.865601,123.675766 335.346741,134.047043 
	C337.716400,133.675522 338.388702,131.763626 339.297028,129.989319 
	C340.056458,128.505768 341.092041,126.730675 343.029358,127.400742 
	C345.323059,128.194077 344.085236,130.128220 343.761322,131.677017 
	C343.635468,132.278610 343.587219,132.896423 343.477905,133.695007 
	C346.022247,133.384933 346.889801,131.383987 348.287903,130.104828 
	C349.374237,129.110886 350.302521,127.475487 352.000793,128.254608 
	C354.083649,129.210159 353.149933,131.018936 352.726929,132.605911 
	C352.568085,133.201797 352.565277,133.839264 352.487732,134.487701 
	C355.617371,135.315796 356.740936,131.003937 359.733887,132.037460 
	C358.392242,136.716217 353.080231,139.955139 348.979706,138.516846 
	C347.883179,138.132248 346.985352,137.316544 345.770477,138.139404 
	C342.903351,140.081451 340.593842,141.336456 336.986786,138.305817 
	C334.996552,136.633621 331.914368,139.846329 330.572479,142.386292 
	C328.163483,146.946152 326.269806,151.784195 323.768372,156.288040 
	C318.925079,165.008347 310.441681,167.271347 301.734009,162.449051 
	C296.469391,159.533524 296.107300,155.269257 301.174164,152.147781 
	C305.270721,149.624039 309.674072,147.575027 314.032654,145.507935 
	C317.058258,144.072998 319.017456,142.159637 320.035522,138.748535 
	C321.493439,133.863525 323.698242,129.201447 325.662811,124.245789 
	C321.099579,121.889755 318.670593,124.272232 316.297424,127.355629 
	C307.315918,139.025024 297.340820,149.685165 284.970276,157.898102 
	C278.935822,161.904465 272.480988,164.856918 264.925049,166.314102 
M254.967606,130.467239 
	C250.889496,131.534546 247.145294,133.121689 244.195557,136.354080 
	C242.608032,138.093735 240.379669,138.810272 238.042068,139.393433 
	C232.291824,140.827988 229.478180,147.841171 232.505280,152.939484 
	C234.145676,155.702271 236.450989,157.854355 239.286713,159.414871 
	C250.439911,165.552505 261.917938,165.787491 273.325012,160.564529 
	C286.932770,154.333954 297.357849,144.038544 306.878387,132.787689 
	C309.155701,130.096466 311.969513,127.687210 313.510834,123.295219 
	C293.535889,123.819122 274.430603,125.142303 254.967606,130.467239 
M302.860352,158.953644 
	C309.077362,162.587875 313.368134,162.629150 316.989929,159.434830 
	C321.453522,155.498108 317.359070,152.164459 316.756409,147.917664 
	C311.442139,149.783234 306.938110,152.056549 302.817841,155.093475 
	C301.604309,155.987946 301.247162,157.203735 302.860352,158.953644 
M332.991394,123.899887 
	C326.924591,127.281105 326.878815,133.714920 325.275299,139.379089 
	C330.085602,135.509476 331.448395,129.752548 332.991394,123.899887 
M327.859344,118.254745 
	C330.521240,114.447136 332.073090,110.151283 334.053101,104.667503 
	C329.110657,109.382141 326.618713,114.256126 323.416138,118.747421 
	C325.234467,119.759155 326.247559,119.019707 327.859344,118.254745 
z"/>
<path fill="#000000" opacity="1.000000" stroke="none" 
	d="
M227.113281,79.806580 
	C224.864624,90.346184 224.864624,90.346184 221.631744,92.013023 
	C220.054626,91.144302 220.586960,89.751862 220.869797,88.507286 
	C221.348526,86.400757 222.116516,84.349960 222.471497,82.226997 
	C224.220932,71.764427 217.345734,65.453560 207.028717,67.929916 
	C195.820740,70.620117 186.578186,76.861336 178.399734,84.566422 
	C155.472641,106.166527 137.285583,131.230576 124.385475,160.050339 
	C123.222145,162.649292 122.686043,166.717850 118.776451,165.899261 
	C115.048508,165.118713 115.907753,161.221283 115.651550,158.321579 
	C114.129257,141.092392 115.320473,123.712608 112.762810,106.533363 
	C112.491920,104.713821 111.962631,102.550308 113.734421,100.948448 
	C116.723999,102.877693 117.172928,108.185791 118.550018,127.665970 
	C119.217186,137.103699 118.376030,146.652802 120.517731,157.188553 
	C124.105125,149.411972 127.404381,142.603058 131.335770,136.142014 
	C145.455231,112.937363 161.710663,91.549675 183.546997,74.934448 
	C190.663849,69.519241 198.496811,65.583504 207.362244,63.927357 
	C219.070663,61.740116 226.538879,67.575027 227.113281,79.806580 
z"/>
</svg>